<!-- SVG Icon Sprite for GreenBite -->
<svg xmlns="http://www.w3.org/2000/svg" style="display:none">
  <symbol id="icon-tip" viewBox="0 0 24 24">
    <circle cx="12" cy="12" r="10" fill="#27ae60"/>
    <path d="M12 7v5l3 3" stroke="#fff" stroke-width="2" stroke-linecap="round" stroke-linejoin="round" fill="none"/>
  </symbol>
  <symbol id="icon-faq" viewBox="0 0 24 24">
    <circle cx="12" cy="12" r="10" fill="#27ae60"/>
    <text x="12" y="16" text-anchor="middle" font-size="12" fill="#fff">?</text>
  </symbol>
  <symbol id="icon-facebook" viewBox="0 0 24 24">
    <rect width="24" height="24" rx="6" fill="#3b5998"/>
    <path d="M15 8h-2a1 1 0 0 0-1 1v2h3l-.5 3h-2.5v6h-3v-6H7v-3h2V9a3 3 0 0 1 3-3h2v2z" fill="#fff"/>
  </symbol>
  <symbol id="icon-tiktok" viewBox="0 0 24 24">
    <rect width="24" height="24" rx="6" fill="#000"/>
    <path d="M16 8v7a4 4 0 1 1-4-4h2" stroke="#fff" stroke-width="2" fill="none"/>
  </symbol>
  <symbol id="icon-instagram" viewBox="0 0 24 24">
    <rect width="24" height="24" rx="6" fill="#E1306C"/>
    <circle cx="12" cy="12" r="5" fill="#fff"/>
    <circle cx="17" cy="7" r="1" fill="#fff"/>
  </symbol>
  <symbol id="icon-telegram" viewBox="0 0 24 24">
    <rect width="24" height="24" rx="6" fill="#0088cc"/>
    <path d="M7 12l10-4-4 10-2-4-4-2z" fill="#fff"/>
  </symbol>
</svg>
